<svg width="461" height="8" viewBox="0 0 461 8" fill="none" xmlns="http://www.w3.org/2000/svg">
<rect width="461" height="8" fill="#C4FF61"/>
<g opacity="0.28" clip-path="url(#clip0_974_108865)">
<line y1="-3.5" x2="58.1008" y2="-3.5" transform="matrix(0.563449 0.826151 -0.689727 0.72407 0 0)" stroke="white" stroke-width="7"/>
<line y1="-3.5" x2="58.1008" y2="-3.5" transform="matrix(0.563449 0.826151 -0.689727 0.72407 16.7363 0)" stroke="white" stroke-width="7"/>
<line y1="-3.5" x2="58.1008" y2="-3.5" transform="matrix(0.563449 0.826151 -0.689727 0.72407 33.4746 0)" stroke="white" stroke-width="7"/>
<line y1="-3.5" x2="58.1008" y2="-3.5" transform="matrix(0.563449 0.826151 -0.689727 0.72407 50.2109 0)" stroke="white" stroke-width="7"/>
<line y1="-3.5" x2="58.1008" y2="-3.5" transform="matrix(0.563449 0.826151 -0.689727 0.72407 66.9473 0)" stroke="white" stroke-width="7"/>
<line y1="-3.5" x2="58.1008" y2="-3.5" transform="matrix(0.563449 0.826151 -0.689727 0.72407 83.6836 0)" stroke="white" stroke-width="7"/>
<line y1="-3.5" x2="58.1008" y2="-3.5" transform="matrix(0.563449 0.826151 -0.689727 0.72407 100.422 0)" stroke="white" stroke-width="7"/>
<line y1="-3.5" x2="58.1008" y2="-3.5" transform="matrix(0.563449 0.826151 -0.689727 0.72407 117.158 0)" stroke="white" stroke-width="7"/>
<line y1="-3.5" x2="58.1008" y2="-3.5" transform="matrix(0.563449 0.826151 -0.689727 0.72407 133.895 0)" stroke="white" stroke-width="7"/>
<line y1="-3.5" x2="58.1008" y2="-3.5" transform="matrix(0.563449 0.826151 -0.689727 0.72407 150.631 0)" stroke="white" stroke-width="7"/>
<line y1="-3.5" x2="58.1008" y2="-3.5" transform="matrix(0.563449 0.826151 -0.689727 0.72407 167.369 0)" stroke="white" stroke-width="7"/>
<line y1="-3.5" x2="58.1008" y2="-3.5" transform="matrix(0.563449 0.826151 -0.689727 0.72407 184.105 0)" stroke="white" stroke-width="7"/>
<line y1="-3.5" x2="58.1008" y2="-3.5" transform="matrix(0.563449 0.826151 -0.689727 0.72407 200.842 0)" stroke="white" stroke-width="7"/>
<line y1="-3.5" x2="58.1008" y2="-3.5" transform="matrix(0.563449 0.826151 -0.689727 0.72407 217.578 0)" stroke="white" stroke-width="7"/>
<line y1="-3.5" x2="58.1008" y2="-3.5" transform="matrix(0.563449 0.826151 -0.689727 0.72407 234.316 0)" stroke="white" stroke-width="7"/>
<line y1="-3.5" x2="58.1008" y2="-3.5" transform="matrix(0.563449 0.826151 -0.689727 0.72407 251.053 0)" stroke="white" stroke-width="7"/>
<line y1="-3.5" x2="58.1008" y2="-3.5" transform="matrix(0.563449 0.826151 -0.689727 0.72407 267.789 0)" stroke="white" stroke-width="7"/>
<line y1="-3.5" x2="58.1008" y2="-3.5" transform="matrix(0.563449 0.826151 -0.689727 0.72407 284.525 0)" stroke="white" stroke-width="7"/>
<line y1="-3.5" x2="58.1008" y2="-3.5" transform="matrix(0.563449 0.826151 -0.689727 0.72407 301.264 0)" stroke="white" stroke-width="7"/>
<line y1="-3.5" x2="58.1008" y2="-3.5" transform="matrix(0.563449 0.826151 -0.689727 0.72407 318 0)" stroke="white" stroke-width="7"/>
<line y1="-3.5" x2="58.1008" y2="-3.5" transform="matrix(0.563449 0.826151 -0.689727 0.72407 334.736 0)" stroke="white" stroke-width="7"/>
<line y1="-3.5" x2="58.1008" y2="-3.5" transform="matrix(0.563449 0.826151 -0.689727 0.72407 351.473 0)" stroke="white" stroke-width="7"/>
<line y1="-3.5" x2="58.1008" y2="-3.5" transform="matrix(0.563449 0.826151 -0.689727 0.72407 368.211 0)" stroke="white" stroke-width="7"/>
<line y1="-3.5" x2="58.1008" y2="-3.5" transform="matrix(0.563449 0.826151 -0.689727 0.72407 384.947 0)" stroke="white" stroke-width="7"/>
<line y1="-3.5" x2="58.1008" y2="-3.5" transform="matrix(0.563449 0.826151 -0.689727 0.72407 -18 0)" stroke="white" stroke-width="7"/>
</g>
<defs>
<clipPath id="clip0_974_108865">
<rect width="461" height="8" fill="white"/>
</clipPath>
</defs>
</svg>
